<svg preserveAspectRatio="none" width="100%" height="100%" overflow="visible" style="display: block;" viewBox="0 0 24 24" fill="none" xmlns="http://www.w3.org/2000/svg">
<g id="bi:people-fill">
<rect width="24" height="24" rx="12" fill="var(--fill-0, #C6C7C8)"/>
<path id="Vector" d="M11 18C11 18 10 18 10 17C10 16 11 13 15 13C19 13 20 16 20 17C20 18 19 18 19 18H11ZM15 12C15.7956 12 16.5587 11.6839 17.1213 11.1213C17.6839 10.5587 18 9.79565 18 9C18 8.20435 17.6839 7.44129 17.1213 6.87868C16.5587 6.31607 15.7956 6 15 6C14.2044 6 13.4413 6.31607 12.8787 6.87868C12.3161 7.44129 12 8.20435 12 9C12 9.79565 12.3161 10.5587 12.8787 11.1213C13.4413 11.6839 14.2044 12 15 12ZM9.216 18C9.06782 17.6878 8.9939 17.3455 9 17C9 15.645 9.68 14.25 10.936 13.28C10.3092 13.0864 9.65598 12.992 9 13C5 13 4 16 4 17C4 18 5 18 5 18H9.216ZM8.5 12C9.16304 12 9.79893 11.7366 10.2678 11.2678C10.7366 10.7989 11 10.163 11 9.5C11 8.83696 10.7366 8.20107 10.2678 7.73223C9.79893 7.26339 9.16304 7 8.5 7C7.83696 7 7.20107 7.26339 6.73223 7.73223C6.26339 8.20107 6 8.83696 6 9.5C6 10.163 6.26339 10.7989 6.73223 11.2678C7.20107 11.7366 7.83696 12 8.5 12Z" fill="var(--fill-0, white)"/>
</g>
</svg>
