<svg preserveAspectRatio="none" width="100%" height="100%" overflow="visible" style="display: block;" viewBox="0 0 32 32" fill="none" xmlns="http://www.w3.org/2000/svg">
<g id="bi:people-fill">
<rect width="32" height="32" rx="16" fill="var(--fill-0, #84AF79)"/>
<path id="Vector" d="M14.625 24C14.625 24 13.25 24 13.25 22.6667C13.25 21.3333 14.625 17.3333 20.125 17.3333C25.625 17.3333 27 21.3333 27 22.6667C27 24 25.625 24 25.625 24H14.625ZM20.125 16C21.219 16 22.2682 15.5786 23.0418 14.8284C23.8154 14.0783 24.25 13.0609 24.25 12C24.25 10.9391 23.8154 9.92172 23.0418 9.17157C22.2682 8.42143 21.219 8 20.125 8C19.031 8 17.9818 8.42143 17.2082 9.17157C16.4346 9.92172 16 10.9391 16 12C16 13.0609 16.4346 14.0783 17.2082 14.8284C17.9818 15.5786 19.031 16 20.125 16ZM12.172 24C11.9683 23.5837 11.8666 23.1274 11.875 22.6667C11.875 20.86 12.81 19 14.537 17.7067C13.6751 17.4486 12.777 17.3226 11.875 17.3333C6.375 17.3333 5 21.3333 5 22.6667C5 24 6.375 24 6.375 24H12.172ZM11.1875 16C12.0992 16 12.9735 15.6488 13.6182 15.0237C14.2628 14.3986 14.625 13.5507 14.625 12.6667C14.625 11.7826 14.2628 10.9348 13.6182 10.3096C12.9735 9.68452 12.0992 9.33333 11.1875 9.33333C10.2758 9.33333 9.40148 9.68452 8.75682 10.3096C8.11216 10.9348 7.75 11.7826 7.75 12.6667C7.75 13.5507 8.11216 14.3986 8.75682 15.0237C9.40148 15.6488 10.2758 16 11.1875 16Z" fill="var(--fill-0, white)"/>
</g>
</svg>
